<svg xmlns="http://www.w3.org/2000/svg" width="1200" height="1000" viewBox="0 0 1200 1000" role="img" aria-labelledby="title desc">
  <title id="title">Local registry states</title>
  <desc id="desc">Three terminal panels showing the local registry as not configured, stopped, and running.</desc>
  <style>
    .bg { fill: #262a26; }
    .panel { fill: #131713; }
    .rule { stroke: #274227; stroke-width: 1; opacity: 0.65; }
    .dot { fill: #5a665a; }
    .label { fill: #cfd8c9; font: 600 16px "IBM Plex Mono", "SFMono-Regular", Menlo, Monaco, Consolas, "Liberation Mono", monospace; letter-spacing: 0.2px; }
    .line { fill: #8cff58; font: 19px "IBM Plex Mono", "SFMono-Regular", Menlo, Monaco, Consolas, "Liberation Mono", monospace; letter-spacing: 0.05px; filter: url(#crt-glow); }
    .prompt { fill: #f1ffe6; }
  </style>
  <defs>
    <filter id="crt-glow" x="-20%" y="-20%" width="140%" height="140%">
      <feGaussianBlur stdDeviation="1.7" result="blur"/>
      <feColorMatrix in="blur" type="matrix" values="0 0 0 0 0.55 0 0 0 0 1 0 0 0 0 0.35 0 0 0 0.8 0" result="glow"/>
      <feMerge>
        <feMergeNode in="glow"/>
        <feMergeNode in="SourceGraphic"/>
      </feMerge>
    </filter>
  </defs>
  <rect class="bg" x="0" y="0" width="1200" height="1000" rx="24"/>
  <g transform="translate(28 24)">
    <rect class="panel" x="0" y="0" width="1144" height="292" rx="18"/>
    <circle class="dot" cx="26" cy="28" r="6.5"/><circle class="dot" cx="48" cy="28" r="6.5"/><circle class="dot" cx="70" cy="28" r="6.5"/>
    <text class="label" x="102" y="34">local registry not configured</text>
    <line class="rule" x1="0" y1="58" x2="1144" y2="58"/>
    <text class="line" xml:space="preserve">
      <tspan class="prompt" x="34" y="94">$ ./octopus registry</tspan>
      <tspan x="34" dy="29">Registry:</tspan>
      <tspan x="34" dy="29">  local      not configured</tspan>
      <tspan x="34" dy="29"></tspan>
      <tspan x="34" dy="29">  1. Start local registry</tspan>
      <tspan x="34" dy="29">  2. Back</tspan>
      <tspan x="34" dy="29">Choose an option:</tspan>
    </text>

    <rect class="panel" x="0" y="314" width="1144" height="292" rx="18"/>
    <circle class="dot" cx="26" cy="342" r="6.5"/><circle class="dot" cx="48" cy="342" r="6.5"/><circle class="dot" cx="70" cy="342" r="6.5"/>
    <text class="label" x="102" y="348">local registry stopped</text>
    <line class="rule" x1="0" y1="372" x2="1144" y2="372"/>
    <text class="line" xml:space="preserve">
      <tspan class="prompt" x="34" y="408">$ ./octopus registry</tspan>
      <tspan x="34" dy="29">Registry:</tspan>
      <tspan x="34" dy="29">  local      stopped    http://localhost:8787/ui</tspan>
      <tspan x="34" dy="29"></tspan>
      <tspan x="34" dy="29">  1. Start local registry</tspan>
      <tspan x="34" dy="29">  2. Back</tspan>
      <tspan x="34" dy="29">Choose an option:</tspan>
    </text>

    <rect class="panel" x="0" y="628" width="1144" height="321" rx="18"/>
    <circle class="dot" cx="26" cy="656" r="6.5"/><circle class="dot" cx="48" cy="656" r="6.5"/><circle class="dot" cx="70" cy="656" r="6.5"/>
    <text class="label" x="102" y="662">local registry running</text>
    <line class="rule" x1="0" y1="686" x2="1144" y2="686"/>
    <text class="line" xml:space="preserve">
      <tspan class="prompt" x="34" y="722">$ ./octopus registry</tspan>
      <tspan x="34" dy="29">Registry:</tspan>
      <tspan x="34" dy="29">  local      running    http://localhost:8787/ui</tspan>
      <tspan x="34" dy="29"></tspan>
      <tspan x="34" dy="29">  1. Follow local registry logs</tspan>
      <tspan x="34" dy="29">  2. Stop local registry</tspan>
      <tspan x="34" dy="29">  3. Back</tspan>
      <tspan x="34" dy="29">Choose an option:</tspan>
    </text>
  </g>
</svg>
