<svg xmlns="http://www.w3.org/2000/svg" width="1200" height="1000" viewBox="0 0 1200 1000" role="img" aria-labelledby="title desc">
  <title id="title">Local registry states</title>
  <desc id="desc">Three terminal panels showing the local registry as not configured, stopped, and running.</desc>
  <style>
    .bg { fill: #2a2d2a; }
    .panel { fill: #141714; }
    .rule { stroke: #2d382d; stroke-width: 1; }
    .dot { fill: #596459; }
    .label { fill: #cad4c4; font: 600 16px "Courier New", "Lucida Console", Monaco, monospace; letter-spacing: 0.3px; }
    .line { fill: #9dff8c; font: 18px "Courier New", "Lucida Console", Monaco, monospace; letter-spacing: 0.15px; }
    .prompt { fill: #eeffe3; }
  </style>
  <rect class="bg" x="0" y="0" width="1200" height="1000" rx="24"/>
  <g transform="translate(28 24)">
    <rect class="panel" x="0" y="0" width="1144" height="292" rx="18"/>
    <circle class="dot" cx="26" cy="28" r="6.5"/><circle class="dot" cx="48" cy="28" r="6.5"/><circle class="dot" cx="70" cy="28" r="6.5"/>
    <text class="label" x="102" y="34">local registry not configured</text>
    <line class="rule" x1="0" y1="58" x2="1144" y2="58"/>
    <text class="line" xml:space="preserve">
      <tspan class="prompt" x="34" y="94">$ ./octopus registry</tspan>
      <tspan x="34" dy="29">Registry:</tspan>
      <tspan x="34" dy="29">  local      not configured</tspan>
      <tspan x="34" dy="29"></tspan>
      <tspan x="34" dy="29">  1. Start local registry</tspan>
      <tspan x="34" dy="29">  2. Back</tspan>
      <tspan x="34" dy="29">Choose an option:</tspan>
    </text>

    <rect class="panel" x="0" y="314" width="1144" height="292" rx="18"/>
    <circle class="dot" cx="26" cy="342" r="6.5"/><circle class="dot" cx="48" cy="342" r="6.5"/><circle class="dot" cx="70" cy="342" r="6.5"/>
    <text class="label" x="102" y="348">local registry stopped</text>
    <line class="rule" x1="0" y1="372" x2="1144" y2="372"/>
    <text class="line" xml:space="preserve">
      <tspan class="prompt" x="34" y="408">$ ./octopus registry</tspan>
      <tspan x="34" dy="29">Registry:</tspan>
      <tspan x="34" dy="29">  local      stopped    http://localhost:8787/ui</tspan>
      <tspan x="34" dy="29"></tspan>
      <tspan x="34" dy="29">  1. Start local registry</tspan>
      <tspan x="34" dy="29">  2. Back</tspan>
      <tspan x="34" dy="29">Choose an option:</tspan>
    </text>

    <rect class="panel" x="0" y="628" width="1144" height="321" rx="18"/>
    <circle class="dot" cx="26" cy="656" r="6.5"/><circle class="dot" cx="48" cy="656" r="6.5"/><circle class="dot" cx="70" cy="656" r="6.5"/>
    <text class="label" x="102" y="662">local registry running</text>
    <line class="rule" x1="0" y1="686" x2="1144" y2="686"/>
    <text class="line" xml:space="preserve">
      <tspan class="prompt" x="34" y="722">$ ./octopus registry</tspan>
      <tspan x="34" dy="29">Registry:</tspan>
      <tspan x="34" dy="29">  local      running    http://localhost:8787/ui</tspan>
      <tspan x="34" dy="29"></tspan>
      <tspan x="34" dy="29">  1. Follow local registry logs</tspan>
      <tspan x="34" dy="29">  2. Stop local registry</tspan>
      <tspan x="34" dy="29">  3. Back</tspan>
      <tspan x="34" dy="29">Choose an option:</tspan>
    </text>
  </g>
</svg>
